<?xml version="1.0" encoding="UTF-8"?>
<svg version="1.1" xmlns="http://www.w3.org/2000/svg" width="16" height="16">
<path d="M0 0 C2.5 1.5 2.5 1.5 4 4 C4.791013 8.02098277 4.62153384 10.96411027 2.5 14.5 C-1.03588973 16.62153384 -3.97901723 16.791013 -8 16 C-10.5 14.5 -10.5 14.5 -12 12 C-12.791013 7.97901723 -12.62153384 5.03588973 -10.5 1.5 C-6.96411027 -0.62153384 -4.02098277 -0.791013 0 0 Z " fill="#030303" transform="translate(12,0)"/>
<path d="M0 0 C0.99 0 1.98 0 3 0 C3.33 3.3 3.66 6.6 4 10 C3.34 10 2.68 10 2 10 C1.87625 9.360625 1.7525 8.72125 1.625 8.0625 C1.41875 7.381875 1.2125 6.70125 1 6 C0.34 5.67 -0.32 5.34 -1 5 C-1 6.65 -1 8.3 -1 10 C-1.66 10 -2.32 10 -3 10 C-2.25 3.375 -2.25 3.375 0 0 Z " fill="#B7B7B7" transform="translate(7,3)"/>
</svg>
